<svg width="1175" height="577" viewBox="0 0 1175 577" fill="none" xmlns="http://www.w3.org/2000/svg">
<path d="M439.54 0.0181749C444.628 -0.204825 450.457 1.64218 454.538 4.57318C460.14 8.59618 464.104 15.2542 465.176 22.0642C465.865 26.4402 465.672 31.0102 463.877 35.1132C460.912 41.8872 456.427 48.2412 452.404 54.4342L436.731 78.5492C420.567 103.534 404.935 129.132 387.764 153.435C397.219 162.533 406.86 171.519 415.528 181.384C417.369 183.467 419.173 185.581 420.94 187.727C422.707 189.874 424.435 192.051 426.124 194.258C427.814 196.466 429.464 198.703 431.074 200.969C432.685 203.235 434.254 205.529 435.783 207.85C437.312 210.172 438.8 212.52 440.246 214.894C441.692 217.268 443.095 219.667 444.456 222.091C445.817 224.515 447.135 226.963 448.409 229.433C449.684 231.904 450.914 234.396 452.1 236.91C453.286 239.424 454.427 241.959 455.524 244.513C456.62 247.068 457.671 249.641 458.676 252.233C459.681 254.825 460.64 257.434 461.553 260.059C462.466 262.685 463.332 265.327 464.151 267.983C464.97 270.639 465.743 273.309 466.468 275.993C467.193 278.677 467.87 281.373 468.499 284.08C469.128 286.788 469.709 289.506 470.242 292.234C470.775 294.963 471.26 297.7 471.696 300.445C472.005 302.43 472.289 304.418 472.548 306.41C472.808 308.402 473.043 310.397 473.254 312.394C473.465 314.392 473.651 316.391 473.813 318.393C473.975 320.396 474.112 322.4 474.225 324.405C474.338 326.411 474.426 328.417 474.49 330.425C474.553 332.433 474.592 334.441 474.607 336.449C474.622 338.458 474.611 340.466 474.576 342.474C474.541 344.483 474.482 346.491 474.398 348.497C474.314 350.505 474.206 352.51 474.073 354.514C473.94 356.518 473.782 358.521 473.6 360.521C473.418 362.521 473.211 364.519 472.98 366.514C472.749 368.51 472.494 370.502 472.214 372.491C471.934 374.481 471.63 376.466 471.301 378.447C470.973 380.429 470.62 382.406 470.243 384.379C469.866 386.352 469.465 388.32 469.04 390.283C468.615 392.247 468.166 394.204 467.693 396.156C467.22 398.108 466.723 400.054 466.202 401.994C465.681 403.934 465.137 405.867 464.569 407.794C464.001 409.721 463.409 411.64 462.794 413.552C462.179 415.464 461.54 417.369 460.879 419.265C460.217 421.162 459.532 423.05 458.824 424.93C458.116 426.81 457.385 428.68 456.631 430.542C455.877 432.404 455.1 434.257 454.301 436.099C453.502 437.942 452.68 439.775 451.836 441.597C450.992 443.42 450.126 445.232 449.237 447.033C448.348 448.835 447.438 450.625 446.506 452.404C445.573 454.184 444.619 455.951 443.644 457.707C442.668 459.463 441.671 461.206 440.653 462.937C439.634 464.668 438.595 466.387 437.534 468.093C436.473 469.799 435.392 471.492 434.291 473.171C433.189 474.851 432.066 476.516 430.923 478.168C429.78 479.82 428.618 481.458 427.435 483.081C403.472 515.98 371.132 539.875 333.71 555.408C319.864 561.156 305.572 565.862 290.732 568.196C296.449 562.964 301.37 556.502 306.401 550.601C340.661 510.418 364.078 460.065 369.058 407.32C377.579 407.797 420.264 408.481 425.29 406.76L425.604 405.447C423.973 400.988 390.971 366.375 385.243 360.404C382.53 363.831 379.498 367.27 376.413 370.365C374.92 371.862 373.541 373.432 371.273 373.368C366.025 373.221 360.818 369.899 356.833 366.678C348.876 360.247 340.945 350.323 333.63 342.846L279.374 287.477C272.157 280.444 261.768 266.323 251.675 264.719C247.856 264.112 242.725 264.584 239.333 266.573C232.994 270.292 224.451 280.534 218.822 286.175L155.872 350.034C148.499 357.455 140.916 367.316 132.564 373.452C132.421 373.557 132.275 373.657 132.131 373.76L121.59 374.257C117.457 369.461 113.161 364.816 108.702 360.322C99.334 369.997 90.386 380.107 81.167 389.928C76.865 394.51 71.398 399.06 67.658 404.061C66.92 405.048 66.9 405.665 67.086 406.828L67.931 406.292L67.443 407.046C74.584 408.951 113.132 407.509 122.782 407.163C96.45 426.379 68.229 437.274 36.929 445.667C30.59 432.662 25.027 419.565 20.766 405.721C20.2127 403.872 19.6817 402.017 19.173 400.156C18.6643 398.295 18.1783 396.428 17.715 394.555C17.2517 392.682 16.8113 390.803 16.394 388.919C15.976 387.036 15.581 385.148 15.209 383.254C14.837 381.361 14.488 379.463 14.162 377.561C13.8353 375.659 13.532 373.754 13.252 371.845C12.972 369.936 12.7153 368.024 12.482 366.108C12.248 364.193 12.0373 362.275 11.85 360.354C11.6627 358.434 11.4987 356.512 11.358 354.587C11.2173 352.663 11.1 350.737 11.006 348.809C10.912 346.883 10.8413 344.955 10.794 343.025C10.746 341.097 10.7217 339.167 10.721 337.237C10.7203 335.308 10.743 333.379 10.789 331.45C10.835 329.521 10.9043 327.593 10.997 325.665C11.0897 323.738 11.2057 321.812 11.345 319.887C11.4843 317.963 11.647 316.041 11.833 314.12C12.019 312.2 12.228 310.282 12.46 308.366C12.6927 306.45 12.9483 304.538 13.227 302.628C13.505 300.719 13.8063 298.813 14.131 296.911C14.4563 295.009 14.8043 293.112 15.175 291.218C15.5457 289.324 15.939 287.435 16.355 285.551C16.7717 283.667 17.211 281.789 17.673 279.915C18.135 278.042 18.6193 276.174 19.126 274.312C19.6333 272.451 20.163 270.596 20.715 268.746C21.267 266.898 21.8413 265.056 22.438 263.221C23.0347 261.386 23.6533 259.558 24.294 257.738C24.9353 255.918 25.5983 254.106 26.283 252.302C26.9677 250.498 27.674 248.703 28.402 246.916C29.13 245.13 29.8797 243.352 30.651 241.583C31.4223 239.815 32.215 238.055 33.029 236.305C33.843 234.556 34.678 232.817 35.534 231.087C36.39 229.358 37.2667 227.639 38.164 225.931C39.052 224.235 39.9603 222.549 40.889 220.874C41.8183 219.2 42.768 217.538 43.738 215.886C44.708 214.236 45.6983 212.596 46.709 210.969C47.719 209.342 48.749 207.729 49.799 206.127C50.8483 204.526 51.9177 202.938 53.007 201.362C54.0957 199.787 55.2037 198.225 56.331 196.677C57.4577 195.129 58.6037 193.595 59.769 192.075C60.9337 190.555 62.1167 189.05 63.318 187.559C64.52 186.068 65.74 184.592 66.978 183.131C68.216 181.671 69.4717 180.225 70.745 178.794C72.019 177.364 73.31 175.95 74.618 174.552C75.926 173.154 77.2513 171.771 78.594 170.405C79.936 169.039 81.2947 167.69 82.67 166.358C84.0453 165.026 85.4367 163.71 86.844 162.411C88.2513 161.113 89.6747 159.833 91.114 158.569C92.5527 157.305 94.007 156.06 95.477 154.832C96.9463 153.604 98.4307 152.395 99.93 151.203C101.429 150.012 102.943 148.839 104.471 147.685C105.999 146.531 107.541 145.396 109.097 144.279C110.653 143.163 112.222 142.066 113.805 140.988C115.388 139.911 116.983 138.853 118.592 137.814C120.201 136.776 121.823 135.757 123.456 134.758C125.09 133.76 126.736 132.781 128.394 131.822C130.052 130.864 131.721 129.926 133.402 129.008C135.083 128.091 136.775 127.194 138.478 126.318C140.181 125.443 141.894 124.588 143.618 123.754C145.342 122.92 147.076 122.108 148.819 121.316C150.563 120.525 152.316 119.755 154.079 119.007C155.842 118.259 157.613 117.533 159.394 116.828C161.175 116.124 162.964 115.441 164.761 114.779C166.558 114.119 168.363 113.48 170.176 112.863C171.989 112.247 173.81 111.653 175.637 111.081C190.244 106.602 205.419 103.148 220.629 101.542C262.058 97.1662 308.661 104.22 345.673 123.89C359.707 101.25 374.713 79.1392 388.939 56.6042C395.108 46.7535 401.327 36.9342 407.595 27.1462C411.63 20.8322 415.533 14.1412 420.355 8.38417C425.331 2.44517 432.156 0.630175 439.54 0.0181749Z" fill="#113A4B"/>
<path d="M436.579 14.8791C439.596 14.6601 442.562 14.7971 445.269 16.3111C449.047 18.4231 450.395 22.2981 451.511 26.1951C450.783 29.3831 449.418 31.8911 447.701 34.6381C442.939 42.2561 437.826 49.6711 432.995 57.2511L345.306 192.944L317.209 236.822C314.945 240.368 310.188 249.307 307.412 251.942C301.978 246.25 296.329 240.638 291.438 234.468C296.053 228.759 299.804 221.927 303.77 215.726L327.567 178.436L402.464 62.2661C408.165 53.5381 413.771 44.7491 419.28 35.8991C422.797 30.2831 426.189 23.9651 430.438 18.8891C432.209 16.7731 434.102 15.9621 436.579 14.8791Z" fill="#FEFEFE"/>
<path d="M204.11 253.811C218.001 242.625 227.971 224.022 247.884 223.896C258.633 223.827 265.524 228.99 272.838 236.305C268.795 240.026 264.061 243.735 260.95 248.292L263.512 252.046C250.999 250.309 240.224 248.588 229.515 256.809C223.935 261.093 219.079 266.642 214.167 271.669L189.866 296.711C186.728 292.229 183.028 288.142 180.003 283.592C176.233 287.17 158.392 305.635 155.277 306.955C156.051 295.991 155.576 284.569 155.435 273.572C155.379 269.191 154.734 264.345 155.321 260.033C155.506 258.676 155.963 257.337 156.902 256.313C158.231 254.864 160.2 254.277 162.086 253.986C166.994 253.231 172.639 253.759 177.635 253.792C186.46 253.843 195.285 253.849 204.11 253.811Z" fill="white"/>
<path d="M272.838 236.305C285.231 247.376 296.502 260.409 308.064 272.368L379.918 346.521C375.74 350.868 371.52 355.18 367.518 359.691C363.046 353.294 356.403 347.515 350.963 341.908L320.276 310.155L283.894 272.26C277.613 265.7 270.959 257.13 263.512 252.046L260.95 248.292C264.061 243.735 268.795 240.026 272.838 236.305Z" fill="#FEFEFE"/>
<path d="M155.277 306.955C158.392 305.635 176.233 287.17 180.003 283.592C183.028 288.142 186.728 292.229 189.866 296.711C174.984 311.342 160.614 326.498 146.049 341.446C140.096 347.555 134.374 354.069 128.104 359.842L115.423 346.725C129.077 333.902 142.223 320.388 155.277 306.955Z" fill="#FEFEFE"/>
<path d="M117.355 189.612C118.232 191.486 118.174 194.352 118.409 196.411C119.413 205.193 120.977 213.969 126.371 221.255C134.742 232.562 148.798 233.702 161.617 235.697C152.523 236.795 142.458 237.574 134.398 242.328C125.994 247.285 121.318 256.811 119.587 266.145C118.857 270.079 118.658 274.216 117.683 278.087L117.449 278.988C114.975 267.747 115.257 257.245 107.422 247.833C98.768 237.437 83.89 236.693 71.447 235.399C82.14 234.175 94.742 233.056 103.592 226.323C114.973 217.664 115.678 202.57 117.355 189.612Z" fill="#FEFEFE"/>
<path d="M247.512 137.658C248.922 144.272 250.3 151.328 254.781 156.659C260.643 163.634 269.905 164.468 278.354 165.258C272.465 166.13 266.062 166.929 260.676 169.612C250.974 174.444 250.574 184.579 247.618 193.578L247.478 193.993C246.598 187.585 245.447 180.717 241.522 175.375C235.679 167.423 225.711 166.693 216.744 165.39C223.306 164.684 231.332 163.773 236.944 160.014C244.399 155.02 245.948 145.793 247.512 137.658Z" fill="#FEFEFE"/>
<path d="M68.606 317.642C71.314 321.305 71.404 324.878 76.166 326.703L79.867 328.124C67.929 332.312 73.897 332.845 69.138 338.944C68.55 336.977 67.852 335.053 66.66 333.361C63.789 329.287 59.747 328.641 55.169 327.851C57.785 327.46 60.582 327.137 62.934 325.838C66.207 324.029 67.511 321.064 68.606 317.642Z" fill="#FEFEFE"/>
<path d="M133.078 414.783C131.452 408.398 129.874 400.529 133.321 394.421C136.805 388.247 145.868 380.739 151.144 375.46L173.96 352.409L219.217 306.201C225.913 299.372 232.396 291.954 239.393 285.469C241.335 283.669 243.86 281.613 246.474 280.939C248.411 280.44 250.281 281.028 251.886 282.136C255.94 284.936 259.563 289.518 263.02 293.074L283.587 314.213L329.028 360.599C335.73 367.544 342.837 374.407 349.118 381.726C351.487 384.487 355.378 389.034 356.044 392.616C357.571 400.822 356.295 410.453 355.085 418.627C349.17 458.6 331.043 497.446 306.999 529.673C299.143 540.203 278.323 565.791 268.02 571.528C264.192 573.66 259.405 574.246 255.127 574.854C251.02 575.409 246.903 575.862 242.774 576.213C247.252 573.127 265.073 556.694 268.081 552.777C266.962 550.149 271.154 539.335 272.049 535.986C275.68 522.394 280.726 489.709 273.013 477.212C271.815 475.272 269.503 472.788 267.087 472.512C265.158 472.292 263.616 472.945 262.184 474.181C255.972 479.545 253.038 491.197 252.257 499.054C254.682 498.386 257.581 498.12 259.872 499.427C261.574 500.397 262.345 502.068 262.637 503.925C264.665 516.836 245.842 551.823 237.824 562.12C234.157 566.83 230.093 571.263 226.249 575.831C209.96 575.948 194.277 577.555 178.02 575.426C121.618 568.041 62.638 528.096 22.838 488.847C15.843 481.949 5.143 471.699 0 463.708C45.078 460.577 98.11 444.404 133.078 414.783Z" fill="#FEFEFE"/>
<path d="M133.078 414.783C131.452 408.398 129.874 400.529 133.321 394.421C136.805 388.247 145.868 380.739 151.144 375.46L173.96 352.409L219.217 306.201C225.913 299.372 232.396 291.954 239.393 285.469C241.335 283.669 243.86 281.613 246.474 280.939C248.411 280.44 250.281 281.028 251.886 282.136C255.94 284.936 259.563 289.518 263.02 293.074L283.587 314.213L329.028 360.599C335.73 367.544 342.837 374.407 349.118 381.726C351.487 384.487 355.378 389.034 356.044 392.616C357.571 400.822 356.295 410.453 355.085 418.627C349.17 458.6 331.043 497.446 306.999 529.673C299.143 540.203 278.323 565.791 268.02 571.528C264.192 573.66 259.405 574.246 255.127 574.854C251.02 575.409 246.903 575.862 242.774 576.213C247.252 573.127 265.073 556.694 268.081 552.777C268.638 552.248 269.188 551.712 269.73 551.169C308.467 512.463 342.226 451.373 342.074 395.6C310.681 362.737 279.035 330.119 247.138 297.744L178.595 367.362C169.28 376.847 159.289 385.943 150.315 395.725C148.956 397.207 146.182 399.969 145.907 401.936C145.238 406.722 149.963 411.853 152.256 415.819C146.904 422.95 139.202 428.276 131.969 433.362C100.895 455.213 66.207 467.926 29.078 474.981C32.746 479.596 37.309 483.467 41.676 487.399C54.547 498.985 68.163 509.139 82.22 519.22C101.592 512.475 119.65 501.88 136.53 490.349C142.653 486.166 148.01 480.637 154.705 477.389C157.27 478.212 159.018 479.488 160.221 481.968C160.795 483.15 161.151 484.488 161.462 485.759C159.013 491.361 152.489 495.842 147.748 499.47C132.026 511.501 115.679 521.245 97.528 529.174C111.089 536.367 123.912 544.263 137.972 550.585C155.437 538.598 170.255 525.923 182.577 508.514C186.106 503.528 191.384 493.178 195.011 489.616C196.899 487.761 199.336 487.64 201.831 488.053C203.165 488.274 204.463 488.898 205.231 490.053C206.633 492.161 206.009 495.311 205.283 497.54C203.734 502.302 200.637 506.738 197.99 510.95C186.085 529.887 171.642 544.779 153.699 558.063C164.402 561.889 175.08 565.847 185.928 569.245C190.554 570.714 195.14 572.155 199.876 573.242L207.602 574.97C223 559.13 235.666 541.488 244.024 520.947C246.868 513.957 248.311 505.404 252.257 499.054C254.682 498.386 257.581 498.12 259.872 499.427C261.574 500.397 262.345 502.068 262.637 503.925C264.665 516.836 245.842 551.823 237.824 562.12C234.157 566.83 230.093 571.263 226.249 575.831C209.96 575.948 194.277 577.555 178.02 575.426C121.618 568.041 62.638 528.096 22.838 488.847C15.843 481.949 5.143 471.699 0 463.708C45.078 460.577 98.11 444.404 133.078 414.783Z" fill="#113A4B"/>
<path d="M223.798 435.554C229.345 435.502 234.906 435.627 240.453 435.677C240.132 445.208 240.191 454.777 240.086 464.314L230.457 464.323L214.025 464.552L213.984 435.718L223.798 435.554Z" fill="#113A4B"/>
<path d="M249.889 435.68C258.697 435.512 267.532 435.7 276.343 435.748C276.103 445.238 276.313 454.728 276.014 464.229C268.468 465.184 257.902 464.324 250.072 464.287C249.956 454.752 249.895 445.216 249.889 435.68Z" fill="#113A4B"/>
<path d="M221.868 397.548C228.068 397.452 234.223 397.368 240.418 397.719L240.263 425.973L232.998 425.838C226.655 425.899 220.313 426.023 213.972 426.208L213.913 397.683L221.868 397.548Z" fill="#113A4B"/>
<path d="M249.964 397.567C258.739 397.267 267.512 397.322 276.283 397.73C276.296 407.119 276.432 416.528 276.034 425.909C267.367 425.7 258.676 425.885 250.006 425.942C249.882 416.484 249.868 407.026 249.964 397.567Z" fill="#113A4B"/>
<path d="M608.98 317.209C605.172 317.209 602.161 319.439 599.947 323.898C597.766 328.358 596.676 334.559 596.676 342.502C596.676 359.038 600.989 367.307 609.615 367.307C613.391 367.307 617.346 366.102 621.48 363.693V375.51C617.997 377.821 613.538 378.977 608.102 378.977C600.061 378.977 593.876 375.786 589.547 369.406C585.25 362.993 583.102 353.993 583.102 342.404C583.102 330.816 585.315 321.783 589.742 315.305C594.202 308.827 600.387 305.588 608.297 305.588C610.901 305.588 613.391 305.946 615.768 306.662C618.176 307.378 620.748 308.632 623.482 310.422L619.088 321.213C617.623 320.204 616.061 319.292 614.4 318.479C612.74 317.632 610.934 317.209 608.98 317.209ZM690.768 378H674.166L667.184 340.598C666.109 335.487 665.344 329.449 664.889 322.482L664.498 326.096L662.496 340.793L655.709 378H639.107L626.168 306.613H639.205L645.602 346.896C646.22 350.933 647.05 357.264 648.092 365.891C648.906 357.167 649.671 350.933 650.387 347.189L658.004 306.613H671.773L679.391 347.189C680.4 353.212 681.197 359.478 681.783 365.988C682.923 356.353 683.753 349.989 684.273 346.896L690.475 306.613H703.609L690.768 378ZM710.787 306.613H729C736.422 306.613 741.826 308.062 745.211 310.959C748.596 313.824 750.289 318.397 750.289 324.68C750.289 328.814 749.394 332.281 747.604 335.08C745.813 337.847 743.372 339.523 740.279 340.109V340.598C744.316 341.607 747.229 343.495 749.02 346.262C750.81 349.029 751.705 352.707 751.705 357.297C751.705 363.775 749.964 368.853 746.48 372.531C743.03 376.177 738.294 378 732.271 378H710.787V306.613ZM723.287 335.324H729.391C732.19 335.324 734.16 334.576 735.299 333.078C736.438 331.581 737.008 329.351 737.008 326.389C737.008 323.426 736.357 321.311 735.055 320.041C733.753 318.739 731.702 318.088 728.902 318.088H723.287V335.324ZM723.287 346.408V366.379H729.977C732.743 366.379 734.794 365.533 736.129 363.84C737.496 362.147 738.18 359.527 738.18 355.979C738.18 349.598 735.38 346.408 729.781 346.408H723.287ZM831.588 341.623C831.588 353.407 829.179 362.424 824.361 368.674C819.576 374.891 812.675 378 803.658 378H786.178V306.613H805.27C813.57 306.613 820.032 309.689 824.654 315.842C829.277 321.962 831.588 330.555 831.588 341.623ZM817.965 342.014C817.965 326.063 813.57 318.088 804.781 318.088H799.459V366.379H803.756C808.606 366.379 812.187 364.361 814.498 360.324C816.809 356.255 817.965 350.152 817.965 342.014ZM844.43 378V306.613H856.93V378H844.43ZM905.807 378L901.705 359.982H883.102L879 378H865.719L883.395 306.32H901.412L919.137 378H905.807ZM899.215 348.215L895.406 331.613C895.178 330.604 894.658 328.081 893.844 324.045C893.062 319.976 892.59 317.258 892.428 315.891C892.005 318.69 891.467 321.783 890.816 325.168C890.165 328.521 888.473 336.203 885.738 348.215H899.215ZM938.717 350.217V378H925.436V306.613H942.818C950.175 306.613 955.595 308.355 959.078 311.838C962.594 315.321 964.352 320.643 964.352 327.805C964.352 336.822 961.308 343.12 955.221 346.701L968.941 378H954.732L943.453 350.217H938.717ZM938.717 338.791H942.135C945.26 338.791 947.506 337.912 948.873 336.154C950.24 334.364 950.924 331.711 950.924 328.195C950.924 324.549 950.191 321.962 948.727 320.432C947.294 318.869 945.064 318.088 942.037 318.088H938.717V338.791ZM977.828 378V306.613H990.328V378H977.828ZM1037.94 358.322C1037.94 364.995 1036.24 370.106 1032.86 373.654C1029.5 377.202 1024.65 378.977 1018.31 378.977C1012.09 378.977 1006.8 377.756 1002.44 375.314V362.18C1007.78 365.663 1012.68 367.404 1017.13 367.404C1019.67 367.404 1021.58 366.704 1022.85 365.305C1024.15 363.905 1024.8 362.001 1024.8 359.592C1024.8 357.215 1024.04 355.051 1022.51 353.098C1020.98 351.112 1018.45 348.915 1014.94 346.506C1011.88 344.39 1009.55 342.372 1007.96 340.451C1006.39 338.498 1005.17 336.317 1004.29 333.908C1003.45 331.499 1003.02 328.7 1003.02 325.51C1003.02 319.39 1004.72 314.54 1008.1 310.959C1011.52 307.378 1016.09 305.588 1021.82 305.588C1027.29 305.588 1032.55 307.118 1037.59 310.178L1033.2 320.822C1031.64 319.911 1029.99 319.097 1028.27 318.381C1026.57 317.665 1024.75 317.307 1022.8 317.307C1020.65 317.307 1018.99 318.023 1017.82 319.455C1016.68 320.855 1016.11 322.775 1016.11 325.217C1016.11 327.626 1016.79 329.725 1018.16 331.516C1019.56 333.306 1021.99 335.34 1025.44 337.619C1030.09 340.744 1033.33 343.934 1035.15 347.189C1037.01 350.445 1037.94 354.156 1037.94 358.322ZM1068.65 378H1055.42V318.283H1041.74V306.613H1082.32V318.283H1068.65V378ZM1120.36 378L1116.26 359.982H1097.65L1093.55 378H1080.27L1097.95 306.32H1115.96L1133.69 378H1120.36ZM1113.77 348.215L1109.96 331.613C1109.73 330.604 1109.21 328.081 1108.39 324.045C1107.61 319.976 1107.14 317.258 1106.98 315.891C1106.56 318.69 1106.02 321.783 1105.37 325.168C1104.72 328.521 1103.02 336.203 1100.29 348.215H1113.77ZM1172.51 358.322C1172.51 364.995 1170.81 370.106 1167.43 373.654C1164.07 377.202 1159.22 378.977 1152.88 378.977C1146.66 378.977 1141.37 377.756 1137.01 375.314V362.18C1142.35 365.663 1147.25 367.404 1151.71 367.404C1154.24 367.404 1156.15 366.704 1157.42 365.305C1158.72 363.905 1159.37 362.001 1159.37 359.592C1159.37 357.215 1158.61 355.051 1157.08 353.098C1155.55 351.112 1153.02 348.915 1149.51 346.506C1146.45 344.39 1144.12 342.372 1142.53 340.451C1140.96 338.498 1139.74 336.317 1138.86 333.908C1138.02 331.499 1137.59 328.7 1137.59 325.51C1137.59 319.39 1139.29 314.54 1142.67 310.959C1146.09 307.378 1150.66 305.588 1156.39 305.588C1161.86 305.588 1167.12 307.118 1172.16 310.178L1167.77 320.822C1166.21 319.911 1164.56 319.097 1162.84 318.381C1161.15 317.665 1159.32 317.307 1157.37 317.307C1155.22 317.307 1153.56 318.023 1152.39 319.455C1151.25 320.855 1150.68 322.775 1150.68 325.217C1150.68 327.626 1151.36 329.725 1152.73 331.516C1154.13 333.306 1156.56 335.34 1160.01 337.619C1164.66 340.744 1167.9 343.934 1169.72 347.189C1171.58 350.445 1172.51 354.156 1172.51 358.322Z" fill="#113A4B"/>
</svg>
