<svg width="596" height="724" viewBox="0 0 596 724" fill="none" xmlns="http://www.w3.org/2000/svg">
<path d="M500.54 0.207018C505.628 -0.0159823 511.457 1.83102 515.538 4.76202C521.14 8.78502 525.104 15.443 526.176 22.253C526.865 26.629 526.672 31.199 524.877 35.302C521.912 42.076 517.427 48.43 513.404 54.623L497.731 78.738C481.567 103.723 465.935 129.321 448.764 153.624C458.219 162.722 467.86 171.708 476.528 181.573C478.369 183.656 480.173 185.77 481.94 187.916C483.707 190.063 485.435 192.24 487.124 194.447C488.814 196.655 490.464 198.892 492.074 201.158C493.685 203.424 495.254 205.718 496.783 208.039C498.312 210.36 499.8 212.708 501.246 215.083C502.692 217.457 504.095 219.856 505.456 222.28C506.817 224.704 508.135 227.151 509.409 229.622C510.684 232.093 511.914 234.585 513.1 237.099C514.286 239.613 515.427 242.147 516.524 244.702C517.62 247.257 518.671 249.83 519.676 252.422C520.681 255.014 521.64 257.623 522.553 260.248C523.466 262.874 524.332 265.515 525.151 268.172C525.97 270.828 526.743 273.498 527.468 276.182C528.193 278.866 528.87 281.562 529.499 284.269C530.128 286.977 530.709 289.695 531.242 292.423C531.775 295.152 532.26 297.889 532.696 300.634C533.005 302.619 533.289 304.607 533.548 306.599C533.808 308.591 534.043 310.586 534.254 312.583C534.465 314.58 534.651 316.58 534.813 318.582C534.975 320.585 535.112 322.589 535.225 324.594C535.338 326.599 535.426 328.606 535.49 330.614C535.553 332.621 535.592 334.629 535.607 336.638C535.622 338.647 535.611 340.655 535.576 342.663C535.541 344.672 535.482 346.679 535.398 348.686C535.314 350.693 535.206 352.699 535.073 354.703C534.94 356.707 534.782 358.709 534.6 360.71C534.418 362.71 534.211 364.708 533.98 366.703C533.749 368.698 533.494 370.691 533.214 372.68C532.934 374.669 532.63 376.655 532.301 378.636C531.973 380.617 531.62 382.595 531.243 384.568C530.866 386.541 530.465 388.509 530.04 390.472C529.615 392.435 529.166 394.393 528.693 396.345C528.22 398.297 527.723 400.243 527.202 402.183C526.681 404.123 526.137 406.056 525.569 407.983C525.001 409.91 524.409 411.829 523.794 413.741C523.179 415.653 522.54 417.557 521.879 419.454C521.217 421.351 520.532 423.239 519.824 425.119C519.116 426.998 518.385 428.869 517.631 430.731C516.877 432.593 516.1 434.445 515.301 436.288C514.502 438.131 513.68 439.963 512.836 441.786C511.992 443.609 511.126 445.421 510.237 447.222C509.348 449.023 508.438 450.814 507.506 452.593C506.573 454.372 505.619 456.14 504.644 457.896C503.668 459.651 502.671 461.395 501.653 463.126C500.634 464.857 499.595 466.576 498.534 468.282C497.473 469.988 496.392 471.681 495.291 473.36C494.189 475.039 493.066 476.705 491.923 478.357C490.78 480.009 489.618 481.647 488.435 483.27C464.472 516.169 432.132 540.064 394.71 555.597C380.864 561.345 366.572 566.051 351.732 568.385C357.449 563.153 362.37 556.691 367.401 550.79C401.661 510.607 425.078 460.254 430.058 407.509C438.579 407.986 481.264 408.67 486.29 406.949L486.604 405.636C484.973 401.177 451.971 366.564 446.243 360.593C443.53 364.02 440.498 367.459 437.413 370.554C435.92 372.051 434.541 373.621 432.273 373.557C427.025 373.41 421.818 370.088 417.833 366.867C409.876 360.436 401.945 350.512 394.63 343.035L340.374 287.666C333.157 280.633 322.768 266.512 312.675 264.908C308.856 264.301 303.725 264.773 300.333 266.762C293.994 270.481 285.451 280.723 279.822 286.364L216.872 350.223C209.499 357.644 201.916 367.505 193.564 373.641C193.421 373.746 193.275 373.846 193.131 373.949L182.59 374.446C178.457 369.65 174.161 365.005 169.702 360.511C160.334 370.186 151.386 380.296 142.167 390.117C137.865 394.699 132.398 399.249 128.658 404.25C127.92 405.237 127.9 405.854 128.086 407.017L128.931 406.481L128.443 407.235C135.584 409.14 174.132 407.698 183.782 407.352C157.45 426.568 129.229 437.463 97.929 445.856C91.59 432.851 86.027 419.754 81.766 405.91C81.2127 404.061 80.6817 402.206 80.173 400.345C79.6643 398.484 79.1783 396.617 78.715 394.744C78.2517 392.871 77.8113 390.992 77.394 389.108C76.976 387.225 76.581 385.336 76.209 383.443C75.837 381.55 75.488 379.652 75.162 377.75C74.8353 375.848 74.532 373.943 74.252 372.034C73.972 370.125 73.7153 368.212 73.482 366.297C73.248 364.382 73.0373 362.464 72.85 360.543C72.6627 358.623 72.4987 356.701 72.358 354.776C72.2173 352.851 72.1 350.925 72.006 348.998C71.912 347.071 71.8413 345.143 71.794 343.214C71.746 341.285 71.7217 339.356 71.721 337.426C71.7203 335.497 71.743 333.568 71.789 331.639C71.835 329.71 71.9043 327.781 71.997 325.854C72.0897 323.927 72.2057 322.001 72.345 320.076C72.4843 318.152 72.647 316.23 72.833 314.309C73.019 312.388 73.228 310.47 73.46 308.555C73.6927 306.639 73.9483 304.726 74.227 302.817C74.505 300.908 74.8063 299.002 75.131 297.1C75.4563 295.198 75.8043 293.3 76.175 291.407C76.5457 289.513 76.939 287.624 77.355 285.74C77.7717 283.856 78.211 281.977 78.673 280.104C79.135 278.231 79.6193 276.363 80.126 274.501C80.6333 272.64 81.163 270.784 81.715 268.935C82.267 267.086 82.8413 265.245 83.438 263.41C84.0347 261.575 84.6533 259.747 85.294 257.927C85.9353 256.107 86.5983 254.295 87.283 252.491C87.9677 250.687 88.674 248.892 89.402 247.105C90.13 245.318 90.8797 243.541 91.651 241.772C92.4223 240.003 93.215 238.244 94.029 236.494C94.843 234.745 95.678 233.005 96.534 231.276C97.39 229.547 98.2667 227.828 99.164 226.12C100.052 224.423 100.96 222.738 101.889 221.063C102.818 219.389 103.768 217.726 104.738 216.075C105.708 214.424 106.698 212.785 107.709 211.158C108.719 209.531 109.749 207.917 110.799 206.316C111.848 204.715 112.918 203.126 114.007 201.551C115.096 199.976 116.204 198.414 117.331 196.866C118.458 195.318 119.604 193.784 120.769 192.264C121.934 190.744 123.117 189.239 124.318 187.748C125.52 186.257 126.74 184.781 127.978 183.32C129.216 181.859 130.472 180.414 131.745 178.983C133.019 177.553 134.31 176.139 135.618 174.741C136.926 173.342 138.251 171.96 139.594 170.594C140.936 169.228 142.295 167.879 143.67 166.547C145.045 165.214 146.437 163.899 147.844 162.6C149.251 161.302 150.675 160.021 152.114 158.758C153.553 157.494 155.007 156.248 156.477 155.021C157.946 153.793 159.431 152.583 160.93 151.392C162.429 150.201 163.943 149.028 165.471 147.874C166.999 146.72 168.541 145.585 170.097 144.468C171.653 143.352 173.222 142.255 174.805 141.177C176.388 140.1 177.983 139.042 179.592 138.003C181.201 136.964 182.823 135.946 184.456 134.947C186.09 133.948 187.736 132.97 189.394 132.011C191.052 131.052 192.721 130.114 194.402 129.197C196.083 128.28 197.775 127.383 199.478 126.507C201.181 125.632 202.894 124.777 204.618 123.943C206.342 123.109 208.076 122.296 209.819 121.505C211.563 120.714 213.316 119.944 215.079 119.196C216.842 118.448 218.613 117.722 220.394 117.017C222.175 116.312 223.964 115.629 225.761 114.968C227.558 114.307 229.363 113.669 231.176 113.052C232.989 112.436 234.81 111.842 236.637 111.27C251.244 106.791 266.419 103.337 281.629 101.731C323.058 97.355 369.661 104.409 406.673 124.079C420.707 101.439 435.713 79.328 449.939 56.793C456.108 46.9423 462.327 37.123 468.595 27.335C472.63 21.021 476.533 14.33 481.355 8.57302C486.331 2.63402 493.156 0.819018 500.54 0.207018Z" fill="#113A4B"/>
<path d="M497.579 15.068C500.596 14.849 503.562 14.986 506.269 16.5C510.047 18.612 511.395 22.487 512.511 26.384C511.783 29.572 510.418 32.08 508.701 34.827C503.939 42.445 498.826 49.86 493.995 57.44L406.306 193.133L378.209 237.011C375.945 240.557 371.188 249.496 368.412 252.131C362.978 246.439 357.329 240.827 352.438 234.657C357.053 228.948 360.804 222.116 364.77 215.915L388.567 178.625L463.464 62.455C469.165 53.727 474.771 44.938 480.28 36.088C483.797 30.472 487.189 24.154 491.438 19.078C493.209 16.962 495.102 16.151 497.579 15.068Z" fill="#FEFEFE"/>
<path d="M265.11 254C279.001 242.814 288.971 224.211 308.884 224.085C319.633 224.016 326.524 229.179 333.838 236.494C329.795 240.215 325.061 243.924 321.95 248.481L324.512 252.235C311.999 250.498 301.224 248.777 290.515 256.998C284.935 261.282 280.079 266.831 275.167 271.858L250.866 296.9C247.728 292.418 244.028 288.331 241.003 283.781C237.233 287.359 219.392 305.824 216.277 307.144C217.051 296.18 216.576 284.758 216.435 273.761C216.379 269.38 215.734 264.534 216.321 260.222C216.506 258.865 216.963 257.526 217.902 256.502C219.231 255.053 221.2 254.466 223.086 254.175C227.994 253.42 233.639 253.948 238.635 253.981C247.46 254.032 256.285 254.038 265.11 254Z" fill="white"/>
<path d="M333.838 236.494C346.231 247.565 357.502 260.598 369.064 272.557L440.918 346.71C436.74 351.057 432.52 355.369 428.518 359.88C424.046 353.483 417.403 347.704 411.963 342.097L381.276 310.344L344.894 272.449C338.613 265.889 331.959 257.319 324.512 252.235L321.95 248.481C325.061 243.924 329.795 240.215 333.838 236.494Z" fill="#FEFEFE"/>
<path d="M216.277 307.144C219.392 305.824 237.233 287.359 241.003 283.781C244.028 288.331 247.728 292.418 250.866 296.9C235.984 311.531 221.614 326.687 207.049 341.635C201.096 347.744 195.374 354.258 189.104 360.031L176.423 346.914C190.077 334.091 203.223 320.577 216.277 307.144Z" fill="#FEFEFE"/>
<path d="M178.355 189.801C179.232 191.675 179.174 194.541 179.409 196.6C180.413 205.382 181.977 214.158 187.371 221.444C195.742 232.751 209.798 233.891 222.617 235.886C213.523 236.984 203.458 237.763 195.398 242.517C186.994 247.474 182.318 257 180.587 266.334C179.857 270.268 179.658 274.405 178.683 278.276L178.449 279.177C175.975 267.936 176.257 257.434 168.422 248.022C159.768 237.626 144.89 236.882 132.447 235.588C143.14 234.364 155.742 233.245 164.592 226.512C175.973 217.853 176.678 202.759 178.355 189.801Z" fill="#FEFEFE"/>
<path d="M308.512 137.847C309.922 144.461 311.3 151.517 315.781 156.848C321.643 163.823 330.905 164.657 339.354 165.447C333.465 166.319 327.062 167.118 321.676 169.801C311.974 174.633 311.574 184.768 308.618 193.767L308.478 194.182C307.598 187.774 306.447 180.906 302.522 175.564C296.679 167.612 286.711 166.882 277.744 165.579C284.306 164.873 292.332 163.962 297.944 160.203C305.399 155.209 306.948 145.982 308.512 137.847Z" fill="#FEFEFE"/>
<path d="M129.606 317.831C132.314 321.494 132.404 325.067 137.166 326.892L140.867 328.313C128.929 332.501 134.897 333.034 130.138 339.133C129.55 337.166 128.852 335.242 127.66 333.55C124.789 329.476 120.747 328.83 116.169 328.04C118.785 327.649 121.582 327.326 123.934 326.027C127.207 324.218 128.511 321.253 129.606 317.831Z" fill="#FEFEFE"/>
<path d="M194.078 414.972C192.452 408.587 190.874 400.718 194.321 394.61C197.805 388.436 206.868 380.928 212.144 375.649L234.96 352.598L280.217 306.39C286.913 299.561 293.396 292.143 300.393 285.658C302.335 283.858 304.86 281.802 307.474 281.128C309.411 280.629 311.281 281.217 312.886 282.325C316.94 285.125 320.563 289.707 324.02 293.263L344.587 314.402L390.028 360.788C396.73 367.733 403.837 374.596 410.118 381.915C412.487 384.676 416.378 389.223 417.044 392.805C418.571 401.011 417.295 410.642 416.085 418.816C410.17 458.789 392.043 497.635 367.999 529.862C360.143 540.392 339.323 565.98 329.02 571.717C325.192 573.849 320.405 574.435 316.127 575.043C312.02 575.598 307.903 576.051 303.774 576.402C308.252 573.316 326.073 556.883 329.081 552.966C327.962 550.338 332.154 539.524 333.049 536.175C336.68 522.583 341.726 489.898 334.013 477.401C332.815 475.461 330.503 472.977 328.087 472.701C326.158 472.481 324.616 473.134 323.184 474.37C316.972 479.734 314.038 491.386 313.257 499.243C315.682 498.575 318.581 498.309 320.872 499.616C322.574 500.586 323.345 502.257 323.637 504.114C325.665 517.025 306.842 552.012 298.824 562.309C295.157 567.019 291.093 571.452 287.249 576.02C270.96 576.137 255.277 577.744 239.02 575.615C182.618 568.23 123.638 528.285 83.838 489.036C76.843 482.138 66.143 471.888 61 463.897C106.078 460.766 159.11 444.593 194.078 414.972Z" fill="#FEFEFE"/>
<path d="M194.078 414.972C192.452 408.587 190.874 400.718 194.321 394.61C197.805 388.436 206.868 380.928 212.144 375.649L234.96 352.598L280.217 306.39C286.913 299.561 293.396 292.143 300.393 285.658C302.335 283.858 304.86 281.802 307.474 281.128C309.411 280.629 311.281 281.217 312.886 282.325C316.94 285.125 320.563 289.707 324.02 293.263L344.587 314.402L390.028 360.788C396.73 367.733 403.837 374.596 410.118 381.915C412.487 384.676 416.378 389.223 417.044 392.805C418.571 401.011 417.295 410.642 416.085 418.816C410.17 458.789 392.043 497.635 367.999 529.862C360.143 540.392 339.323 565.98 329.02 571.717C325.192 573.849 320.405 574.435 316.127 575.043C312.02 575.598 307.903 576.051 303.774 576.402C308.252 573.316 326.073 556.883 329.081 552.966C329.638 552.437 330.188 551.901 330.73 551.358C369.467 512.652 403.226 451.562 403.074 395.789C371.681 362.926 340.035 330.308 308.138 297.933L239.595 367.551C230.28 377.036 220.289 386.132 211.315 395.914C209.956 397.396 207.182 400.158 206.907 402.125C206.238 406.911 210.963 412.042 213.256 416.008C207.904 423.139 200.202 428.465 192.969 433.551C161.895 455.402 127.207 468.115 90.078 475.17C93.746 479.785 98.309 483.656 102.676 487.588C115.547 499.174 129.163 509.328 143.22 519.409C162.592 512.664 180.65 502.069 197.53 490.538C203.653 486.355 209.01 480.826 215.705 477.578C218.27 478.401 220.018 479.677 221.221 482.157C221.795 483.339 222.151 484.677 222.462 485.948C220.013 491.55 213.489 496.031 208.748 499.659C193.026 511.69 176.679 521.434 158.528 529.363C172.089 536.556 184.912 544.452 198.972 550.774C216.437 538.787 231.255 526.112 243.577 508.703C247.106 503.717 252.384 493.367 256.011 489.805C257.899 487.95 260.336 487.829 262.831 488.242C264.165 488.463 265.463 489.087 266.231 490.242C267.633 492.35 267.009 495.5 266.283 497.729C264.734 502.491 261.637 506.927 258.99 511.139C247.085 530.076 232.642 544.968 214.699 558.252C225.402 562.078 236.08 566.036 246.928 569.434C251.554 570.903 256.14 572.344 260.876 573.431L268.602 575.159C284 559.319 296.666 541.677 305.024 521.136C307.868 514.146 309.311 505.593 313.257 499.243C315.682 498.575 318.581 498.309 320.872 499.616C322.574 500.586 323.345 502.257 323.637 504.114C325.665 517.025 306.842 552.012 298.824 562.309C295.157 567.019 291.093 571.452 287.249 576.02C270.96 576.137 255.277 577.744 239.02 575.615C182.618 568.23 123.638 528.285 83.838 489.036C76.843 482.138 66.143 471.888 61 463.897C106.078 460.766 159.11 444.593 194.078 414.972Z" fill="#113A4B"/>
<path d="M284.798 435.743C290.345 435.691 295.906 435.816 301.453 435.866C301.132 445.397 301.191 454.966 301.086 464.503L291.457 464.512L275.025 464.741L274.984 435.907L284.798 435.743Z" fill="#113A4B"/>
<path d="M310.889 435.869C319.697 435.701 328.532 435.889 337.343 435.937C337.103 445.427 337.313 454.917 337.014 464.418C329.468 465.373 318.902 464.513 311.072 464.476C310.956 454.941 310.895 445.405 310.889 435.869Z" fill="#113A4B"/>
<path d="M282.868 397.737C289.068 397.641 295.223 397.557 301.418 397.908L301.263 426.162L293.998 426.027C287.655 426.088 281.313 426.212 274.972 426.397L274.913 397.872L282.868 397.737Z" fill="#113A4B"/>
<path d="M310.964 397.756C319.739 397.456 328.512 397.51 337.283 397.919C337.296 407.308 337.432 416.717 337.034 426.098C328.367 425.889 319.676 426.074 311.006 426.131C310.882 416.673 310.868 407.215 310.964 397.756Z" fill="#113A4B"/>
<path d="M29.9805 634.209C26.1719 634.209 23.1608 636.439 20.9473 640.898C18.7663 645.358 17.6758 651.559 17.6758 659.502C17.6758 676.038 21.9889 684.307 30.6152 684.307C34.3913 684.307 38.3464 683.102 42.4805 680.693V692.51C38.9974 694.821 34.5378 695.977 29.1016 695.977C21.0612 695.977 14.8763 692.786 10.5469 686.406C6.25 679.993 4.10156 670.993 4.10156 659.404C4.10156 647.816 6.3151 638.783 10.7422 632.305C15.2018 625.827 21.3867 622.588 29.2969 622.588C31.901 622.588 34.3913 622.946 36.7676 623.662C39.1764 624.378 41.748 625.632 44.4824 627.422L40.0879 638.213C38.623 637.204 37.0605 636.292 35.4004 635.479C33.7402 634.632 31.9336 634.209 29.9805 634.209ZM111.768 695H95.166L88.1836 657.598C87.1094 652.487 86.3444 646.449 85.8887 639.482L85.498 643.096L83.4961 657.793L76.709 695H60.1074L47.168 623.613H60.2051L66.6016 663.896C67.2201 667.933 68.0501 674.264 69.0918 682.891C69.9056 674.167 70.6706 667.933 71.3867 664.189L79.0039 623.613H92.7734L100.391 664.189C101.4 670.212 102.197 676.478 102.783 682.988C103.923 673.353 104.753 666.989 105.273 663.896L111.475 623.613H124.609L111.768 695ZM131.787 623.613H150C157.422 623.613 162.826 625.062 166.211 627.959C169.596 630.824 171.289 635.397 171.289 641.68C171.289 645.814 170.394 649.281 168.604 652.08C166.813 654.847 164.372 656.523 161.279 657.109V657.598C165.316 658.607 168.229 660.495 170.02 663.262C171.81 666.029 172.705 669.707 172.705 674.297C172.705 680.775 170.964 685.853 167.48 689.531C164.03 693.177 159.294 695 153.271 695H131.787V623.613ZM144.287 652.324H150.391C153.19 652.324 155.16 651.576 156.299 650.078C157.438 648.581 158.008 646.351 158.008 643.389C158.008 640.426 157.357 638.311 156.055 637.041C154.753 635.739 152.702 635.088 149.902 635.088H144.287V652.324ZM144.287 663.408V683.379H150.977C153.743 683.379 155.794 682.533 157.129 680.84C158.496 679.147 159.18 676.527 159.18 672.979C159.18 666.598 156.38 663.408 150.781 663.408H144.287ZM252.588 658.623C252.588 670.407 250.179 679.424 245.361 685.674C240.576 691.891 233.675 695 224.658 695H207.178V623.613H226.27C234.57 623.613 241.032 626.689 245.654 632.842C250.277 638.962 252.588 647.555 252.588 658.623ZM238.965 659.014C238.965 643.063 234.57 635.088 225.781 635.088H220.459V683.379H224.756C229.606 683.379 233.187 681.361 235.498 677.324C237.809 673.255 238.965 667.152 238.965 659.014ZM265.43 695V623.613H277.93V695H265.43ZM326.807 695L322.705 676.982H304.102L300 695H286.719L304.395 623.32H322.412L340.137 695H326.807ZM320.215 665.215L316.406 648.613C316.178 647.604 315.658 645.081 314.844 641.045C314.062 636.976 313.59 634.258 313.428 632.891C313.005 635.69 312.467 638.783 311.816 642.168C311.165 645.521 309.473 653.203 306.738 665.215H320.215ZM359.717 667.217V695H346.436V623.613H363.818C371.175 623.613 376.595 625.355 380.078 628.838C383.594 632.321 385.352 637.643 385.352 644.805C385.352 653.822 382.308 660.12 376.221 663.701L389.941 695H375.732L364.453 667.217H359.717ZM359.717 655.791H363.135C366.26 655.791 368.506 654.912 369.873 653.154C371.24 651.364 371.924 648.711 371.924 645.195C371.924 641.549 371.191 638.962 369.727 637.432C368.294 635.869 366.064 635.088 363.037 635.088H359.717V655.791ZM398.828 695V623.613H411.328V695H398.828ZM458.936 675.322C458.936 681.995 457.243 687.106 453.857 690.654C450.505 694.202 445.654 695.977 439.307 695.977C433.089 695.977 427.799 694.756 423.438 692.314V679.18C428.776 682.663 433.675 684.404 438.135 684.404C440.674 684.404 442.578 683.704 443.848 682.305C445.15 680.905 445.801 679.001 445.801 676.592C445.801 674.215 445.036 672.051 443.506 670.098C441.976 668.112 439.453 665.915 435.938 663.506C432.878 661.39 430.55 659.372 428.955 657.451C427.393 655.498 426.172 653.317 425.293 650.908C424.447 648.499 424.023 645.7 424.023 642.51C424.023 636.39 425.716 631.54 429.102 627.959C432.52 624.378 437.093 622.588 442.822 622.588C448.291 622.588 453.548 624.118 458.594 627.178L454.199 637.822C452.637 636.911 450.993 636.097 449.268 635.381C447.575 634.665 445.752 634.307 443.799 634.307C441.65 634.307 439.99 635.023 438.818 636.455C437.679 637.855 437.109 639.775 437.109 642.217C437.109 644.626 437.793 646.725 439.16 648.516C440.56 650.306 442.985 652.34 446.436 654.619C451.09 657.744 454.329 660.934 456.152 664.189C458.008 667.445 458.936 671.156 458.936 675.322ZM489.648 695H476.416V635.283H462.744V623.613H503.32V635.283H489.648V695ZM541.357 695L537.256 676.982H518.652L514.551 695H501.27L518.945 623.32H536.963L554.688 695H541.357ZM534.766 665.215L530.957 648.613C530.729 647.604 530.208 645.081 529.395 641.045C528.613 636.976 528.141 634.258 527.979 632.891C527.555 635.69 527.018 638.783 526.367 642.168C525.716 645.521 524.023 653.203 521.289 665.215H534.766ZM593.506 675.322C593.506 681.995 591.813 687.106 588.428 690.654C585.075 694.202 580.225 695.977 573.877 695.977C567.66 695.977 562.37 694.756 558.008 692.314V679.18C563.346 682.663 568.245 684.404 572.705 684.404C575.244 684.404 577.148 683.704 578.418 682.305C579.72 680.905 580.371 679.001 580.371 676.592C580.371 674.215 579.606 672.051 578.076 670.098C576.546 668.112 574.023 665.915 570.508 663.506C567.448 661.39 565.12 659.372 563.525 657.451C561.963 655.498 560.742 653.317 559.863 650.908C559.017 648.499 558.594 645.7 558.594 642.51C558.594 636.39 560.286 631.54 563.672 627.959C567.09 624.378 571.663 622.588 577.393 622.588C582.861 622.588 588.118 624.118 593.164 627.178L588.77 637.822C587.207 636.911 585.563 636.097 583.838 635.381C582.145 634.665 580.322 634.307 578.369 634.307C576.221 634.307 574.561 635.023 573.389 636.455C572.249 637.855 571.68 639.775 571.68 642.217C571.68 644.626 572.363 646.725 573.73 648.516C575.13 650.306 577.555 652.34 581.006 654.619C585.661 657.744 588.9 660.934 590.723 664.189C592.578 667.445 593.506 671.156 593.506 675.322Z" fill="#113A4B"/>
</svg>
